<?xml version="1.0" encoding="UTF-8"?>
<svg xmlns="http://www.w3.org/2000/svg" xmlns:xlink="http://www.w3.org/1999/xlink" width="3872.99" height="3872.99" viewBox="0 0 3872.99 3872.99">
<defs>
<clipPath id="clip-0">
<path clip-rule="nonzero" d="M 0 0 L 3872.988281 0 L 3872.988281 3872.988281 L 0 3872.988281 Z M 0 0 "/>
</clipPath>
<clipPath id="clip-1">
<path clip-rule="evenodd" d="M 459.511719 196.929688 C 315.09375 196.929688 196.925781 315.089844 196.925781 459.511719 L 196.925781 3413.46875 C 196.925781 3557.898438 315.09375 3676.058594 459.511719 3676.058594 L 3413.46875 3676.058594 C 3557.898438 3676.058594 3676.058594 3557.898438 3676.058594 3413.46875 L 3676.058594 459.511719 C 3676.058594 315.089844 3557.898438 196.929688 3413.46875 196.929688 Z M 459.511719 0 L 3413.46875 0 C 3666.210938 0 3872.988281 206.78125 3872.988281 459.511719 L 3872.988281 3413.46875 C 3872.988281 3666.210938 3666.210938 3872.988281 3413.46875 3872.988281 L 459.511719 3872.988281 C 206.777344 3872.988281 0 3666.210938 0 3413.46875 L 0 459.511719 C 0 206.78125 206.777344 0 459.511719 0 "/>
</clipPath>
<linearGradient id="linear-pattern-0" gradientUnits="userSpaceOnUse" x1="-0.260024" y1="0" x2="1.260167" y2="0" gradientTransform="matrix(2547.7, 2547.7, -2547.7, 2547.7, 662.464, 662.46)">
<stop offset="0" stop-color="rgb(98.431396%, 76.469421%, 26.66626%)" stop-opacity="1"/>
<stop offset="0.125" stop-color="rgb(98.431396%, 76.469421%, 26.66626%)" stop-opacity="1"/>
<stop offset="0.15625" stop-color="rgb(98.431396%, 76.469421%, 26.66626%)" stop-opacity="1"/>
<stop offset="0.171875" stop-color="rgb(98.429871%, 76.49231%, 26.679993%)" stop-opacity="1"/>
<stop offset="0.175781" stop-color="rgb(98.423767%, 76.739502%, 26.831055%)" stop-opacity="1"/>
<stop offset="0.179688" stop-color="rgb(98.419189%, 76.96228%, 26.968384%)" stop-opacity="1"/>
<stop offset="0.183594" stop-color="rgb(98.414612%, 77.185059%, 27.104187%)" stop-opacity="1"/>
<stop offset="0.1875" stop-color="rgb(98.410034%, 77.407837%, 27.241516%)" stop-opacity="1"/>
<stop offset="0.191406" stop-color="rgb(98.403931%, 77.630615%, 27.377319%)" stop-opacity="1"/>
<stop offset="0.195313" stop-color="rgb(98.399353%, 77.853394%, 27.514648%)" stop-opacity="1"/>
<stop offset="0.199219" stop-color="rgb(98.39325%, 78.076172%, 27.650452%)" stop-opacity="1"/>
<stop offset="0.203125" stop-color="rgb(98.388672%, 78.29895%, 27.787781%)" stop-opacity="1"/>
<stop offset="0.207031" stop-color="rgb(98.384094%, 78.521729%, 27.92511%)" stop-opacity="1"/>
<stop offset="0.210938" stop-color="rgb(98.379517%, 78.744507%, 28.062439%)" stop-opacity="1"/>
<stop offset="0.214844" stop-color="rgb(98.373413%, 78.967285%, 28.198242%)" stop-opacity="1"/>
<stop offset="0.21875" stop-color="rgb(98.368835%, 79.190063%, 28.335571%)" stop-opacity="1"/>
<stop offset="0.222656" stop-color="rgb(98.362732%, 79.412842%, 28.471375%)" stop-opacity="1"/>
<stop offset="0.226563" stop-color="rgb(98.358154%, 79.63562%, 28.608704%)" stop-opacity="1"/>
<stop offset="0.230469" stop-color="rgb(98.353577%, 79.858398%, 28.744507%)" stop-opacity="1"/>
<stop offset="0.234375" stop-color="rgb(98.348999%, 80.081177%, 28.881836%)" stop-opacity="1"/>
<stop offset="0.238281" stop-color="rgb(98.342896%, 80.303955%, 29.017639%)" stop-opacity="1"/>
<stop offset="0.242188" stop-color="rgb(98.338318%, 80.526733%, 29.154968%)" stop-opacity="1"/>
<stop offset="0.246094" stop-color="rgb(98.332214%, 80.749512%, 29.290771%)" stop-opacity="1"/>
<stop offset="0.25" stop-color="rgb(98.327637%, 80.97229%, 29.428101%)" stop-opacity="1"/>
<stop offset="0.253906" stop-color="rgb(98.323059%, 81.195068%, 29.56543%)" stop-opacity="1"/>
<stop offset="0.257812" stop-color="rgb(98.318481%, 81.417847%, 29.702759%)" stop-opacity="1"/>
<stop offset="0.261719" stop-color="rgb(98.312378%, 81.640625%, 29.838562%)" stop-opacity="1"/>
<stop offset="0.265625" stop-color="rgb(98.3078%, 81.863403%, 29.975891%)" stop-opacity="1"/>
<stop offset="0.269531" stop-color="rgb(98.303223%, 82.086182%, 30.111694%)" stop-opacity="1"/>
<stop offset="0.273438" stop-color="rgb(98.298645%, 82.30896%, 30.249023%)" stop-opacity="1"/>
<stop offset="0.277344" stop-color="rgb(98.292542%, 82.531738%, 30.384827%)" stop-opacity="1"/>
<stop offset="0.28125" stop-color="rgb(98.287964%, 82.754517%, 30.522156%)" stop-opacity="1"/>
<stop offset="0.285156" stop-color="rgb(98.28186%, 82.977295%, 30.657959%)" stop-opacity="1"/>
<stop offset="0.289062" stop-color="rgb(98.277283%, 83.200073%, 30.795288%)" stop-opacity="1"/>
<stop offset="0.292969" stop-color="rgb(98.272705%, 83.422852%, 30.931091%)" stop-opacity="1"/>
<stop offset="0.296875" stop-color="rgb(98.268127%, 83.64563%, 31.06842%)" stop-opacity="1"/>
<stop offset="0.300781" stop-color="rgb(98.262024%, 83.868408%, 31.204224%)" stop-opacity="1"/>
<stop offset="0.304688" stop-color="rgb(98.257446%, 84.091187%, 31.341553%)" stop-opacity="1"/>
<stop offset="0.308594" stop-color="rgb(98.251343%, 84.312439%, 31.478882%)" stop-opacity="1"/>
<stop offset="0.3125" stop-color="rgb(98.246765%, 84.535217%, 31.616211%)" stop-opacity="1"/>
<stop offset="0.316406" stop-color="rgb(98.242188%, 84.757996%, 31.752014%)" stop-opacity="1"/>
<stop offset="0.320312" stop-color="rgb(98.23761%, 84.980774%, 31.889343%)" stop-opacity="1"/>
<stop offset="0.324219" stop-color="rgb(98.231506%, 85.203552%, 32.025146%)" stop-opacity="1"/>
<stop offset="0.328125" stop-color="rgb(98.226929%, 85.426331%, 32.162476%)" stop-opacity="1"/>
<stop offset="0.332031" stop-color="rgb(98.220825%, 85.649109%, 32.298279%)" stop-opacity="1"/>
<stop offset="0.335938" stop-color="rgb(98.216248%, 85.871887%, 32.435608%)" stop-opacity="1"/>
<stop offset="0.339844" stop-color="rgb(98.21167%, 86.094666%, 32.571411%)" stop-opacity="1"/>
<stop offset="0.34375" stop-color="rgb(98.207092%, 86.317444%, 32.70874%)" stop-opacity="1"/>
<stop offset="0.347656" stop-color="rgb(98.200989%, 86.540222%, 32.844543%)" stop-opacity="1"/>
<stop offset="0.351562" stop-color="rgb(98.196411%, 86.763%, 32.981873%)" stop-opacity="1"/>
<stop offset="0.355469" stop-color="rgb(98.191833%, 86.985779%, 33.119202%)" stop-opacity="1"/>
<stop offset="0.359375" stop-color="rgb(98.187256%, 87.208557%, 33.256531%)" stop-opacity="1"/>
<stop offset="0.363281" stop-color="rgb(98.181152%, 87.431335%, 33.392334%)" stop-opacity="1"/>
<stop offset="0.367188" stop-color="rgb(98.176575%, 87.654114%, 33.529663%)" stop-opacity="1"/>
<stop offset="0.371094" stop-color="rgb(98.170471%, 87.876892%, 33.665466%)" stop-opacity="1"/>
<stop offset="0.375" stop-color="rgb(98.165894%, 88.09967%, 33.802795%)" stop-opacity="1"/>
<stop offset="0.378906" stop-color="rgb(98.161316%, 88.322449%, 33.938599%)" stop-opacity="1"/>
<stop offset="0.382813" stop-color="rgb(98.156738%, 88.545227%, 34.075928%)" stop-opacity="1"/>
<stop offset="0.386719" stop-color="rgb(98.150635%, 88.768005%, 34.211731%)" stop-opacity="1"/>
<stop offset="0.390625" stop-color="rgb(98.146057%, 88.990784%, 34.34906%)" stop-opacity="1"/>
<stop offset="0.394531" stop-color="rgb(98.139954%, 89.213562%, 34.484863%)" stop-opacity="1"/>
<stop offset="0.398438" stop-color="rgb(98.135376%, 89.43634%, 34.622192%)" stop-opacity="1"/>
<stop offset="0.402344" stop-color="rgb(98.130798%, 89.659119%, 34.757996%)" stop-opacity="1"/>
<stop offset="0.40625" stop-color="rgb(98.126221%, 89.881897%, 34.895325%)" stop-opacity="1"/>
<stop offset="0.410156" stop-color="rgb(98.120117%, 90.104675%, 35.032654%)" stop-opacity="1"/>
<stop offset="0.414062" stop-color="rgb(98.11554%, 90.327454%, 35.169983%)" stop-opacity="1"/>
<stop offset="0.417969" stop-color="rgb(98.109436%, 90.550232%, 35.305786%)" stop-opacity="1"/>
<stop offset="0.421875" stop-color="rgb(98.104858%, 90.77301%, 35.443115%)" stop-opacity="1"/>
<stop offset="0.425781" stop-color="rgb(98.100281%, 90.995789%, 35.578918%)" stop-opacity="1"/>
<stop offset="0.429688" stop-color="rgb(98.095703%, 91.218567%, 35.716248%)" stop-opacity="1"/>
<stop offset="0.433594" stop-color="rgb(98.0896%, 91.441345%, 35.852051%)" stop-opacity="1"/>
<stop offset="0.4375" stop-color="rgb(98.085022%, 91.664124%, 35.98938%)" stop-opacity="1"/>
<stop offset="0.441406" stop-color="rgb(98.080444%, 91.886902%, 36.125183%)" stop-opacity="1"/>
<stop offset="0.445313" stop-color="rgb(98.075867%, 92.10968%, 36.262512%)" stop-opacity="1"/>
<stop offset="0.449219" stop-color="rgb(98.069763%, 92.332458%, 36.398315%)" stop-opacity="1"/>
<stop offset="0.453125" stop-color="rgb(98.065186%, 92.555237%, 36.535645%)" stop-opacity="1"/>
<stop offset="0.457031" stop-color="rgb(98.059082%, 92.778015%, 36.672974%)" stop-opacity="1"/>
<stop offset="0.460938" stop-color="rgb(98.054504%, 93.000793%, 36.810303%)" stop-opacity="1"/>
<stop offset="0.464844" stop-color="rgb(98.049927%, 93.223572%, 36.946106%)" stop-opacity="1"/>
<stop offset="0.46875" stop-color="rgb(98.045349%, 93.44635%, 37.083435%)" stop-opacity="1"/>
<stop offset="0.476562" stop-color="rgb(97.85614%, 93.522644%, 37.207031%)" stop-opacity="1"/>
<stop offset="0.480469" stop-color="rgb(97.171021%, 93.431091%, 37.434387%)" stop-opacity="1"/>
<stop offset="0.484375" stop-color="rgb(96.67511%, 93.263245%, 37.538147%)" stop-opacity="1"/>
<stop offset="0.488281" stop-color="rgb(96.179199%, 93.093872%, 37.641907%)" stop-opacity="1"/>
<stop offset="0.492188" stop-color="rgb(95.683289%, 92.926025%, 37.745667%)" stop-opacity="1"/>
<stop offset="0.496094" stop-color="rgb(95.187378%, 92.758179%, 37.849426%)" stop-opacity="1"/>
<stop offset="0.5" stop-color="rgb(94.691467%, 92.590332%, 37.953186%)" stop-opacity="1"/>
<stop offset="0.503906" stop-color="rgb(94.195557%, 92.420959%, 38.05542%)" stop-opacity="1"/>
<stop offset="0.507813" stop-color="rgb(93.699646%, 92.253113%, 38.15918%)" stop-opacity="1"/>
<stop offset="0.511719" stop-color="rgb(93.203735%, 92.085266%, 38.262939%)" stop-opacity="1"/>
<stop offset="0.515625" stop-color="rgb(92.707825%, 91.917419%, 38.366699%)" stop-opacity="1"/>
<stop offset="0.519531" stop-color="rgb(92.211914%, 91.748047%, 38.470459%)" stop-opacity="1"/>
<stop offset="0.523438" stop-color="rgb(91.716003%, 91.5802%, 38.574219%)" stop-opacity="1"/>
<stop offset="0.527344" stop-color="rgb(91.220093%, 91.412354%, 38.676453%)" stop-opacity="1"/>
<stop offset="0.53125" stop-color="rgb(90.724182%, 91.244507%, 38.780212%)" stop-opacity="1"/>
<stop offset="0.535156" stop-color="rgb(90.228271%, 91.075134%, 38.883972%)" stop-opacity="1"/>
<stop offset="0.539062" stop-color="rgb(89.732361%, 90.907288%, 38.987732%)" stop-opacity="1"/>
<stop offset="0.542969" stop-color="rgb(89.23645%, 90.739441%, 39.091492%)" stop-opacity="1"/>
<stop offset="0.546875" stop-color="rgb(88.74054%, 90.571594%, 39.195251%)" stop-opacity="1"/>
<stop offset="0.550781" stop-color="rgb(88.244629%, 90.403748%, 39.297485%)" stop-opacity="1"/>
<stop offset="0.554688" stop-color="rgb(87.748718%, 90.235901%, 39.401245%)" stop-opacity="1"/>
<stop offset="0.558594" stop-color="rgb(87.252808%, 90.066528%, 39.505005%)" stop-opacity="1"/>
<stop offset="0.5625" stop-color="rgb(86.756897%, 89.898682%, 39.608765%)" stop-opacity="1"/>
<stop offset="0.566406" stop-color="rgb(86.260986%, 89.730835%, 39.712524%)" stop-opacity="1"/>
<stop offset="0.570313" stop-color="rgb(85.765076%, 89.562988%, 39.816284%)" stop-opacity="1"/>
<stop offset="0.574219" stop-color="rgb(85.269165%, 89.393616%, 39.918518%)" stop-opacity="1"/>
<stop offset="0.578125" stop-color="rgb(84.773254%, 89.225769%, 40.022278%)" stop-opacity="1"/>
<stop offset="0.582031" stop-color="rgb(84.277344%, 89.057922%, 40.126038%)" stop-opacity="1"/>
<stop offset="0.585938" stop-color="rgb(83.781433%, 88.890076%, 40.229797%)" stop-opacity="1"/>
<stop offset="0.589844" stop-color="rgb(83.285522%, 88.720703%, 40.332031%)" stop-opacity="1"/>
<stop offset="0.59375" stop-color="rgb(82.789612%, 88.552856%, 40.435791%)" stop-opacity="1"/>
<stop offset="0.597656" stop-color="rgb(82.293701%, 88.38501%, 40.539551%)" stop-opacity="1"/>
<stop offset="0.601562" stop-color="rgb(81.797791%, 88.217163%, 40.643311%)" stop-opacity="1"/>
<stop offset="0.605469" stop-color="rgb(81.30188%, 88.047791%, 40.74707%)" stop-opacity="1"/>
<stop offset="0.609375" stop-color="rgb(80.805969%, 87.879944%, 40.85083%)" stop-opacity="1"/>
<stop offset="0.613281" stop-color="rgb(80.310059%, 87.712097%, 40.953064%)" stop-opacity="1"/>
<stop offset="0.617188" stop-color="rgb(79.814148%, 87.54425%, 41.056824%)" stop-opacity="1"/>
<stop offset="0.621094" stop-color="rgb(79.318237%, 87.376404%, 41.160583%)" stop-opacity="1"/>
<stop offset="0.625" stop-color="rgb(78.822327%, 87.208557%, 41.264343%)" stop-opacity="1"/>
<stop offset="0.628906" stop-color="rgb(78.326416%, 87.039185%, 41.368103%)" stop-opacity="1"/>
<stop offset="0.632813" stop-color="rgb(77.830505%, 86.871338%, 41.471863%)" stop-opacity="1"/>
<stop offset="0.636719" stop-color="rgb(77.334595%, 86.703491%, 41.574097%)" stop-opacity="1"/>
<stop offset="0.640625" stop-color="rgb(76.838684%, 86.535645%, 41.677856%)" stop-opacity="1"/>
<stop offset="0.644531" stop-color="rgb(76.342773%, 86.366272%, 41.781616%)" stop-opacity="1"/>
<stop offset="0.648438" stop-color="rgb(75.846863%, 86.198425%, 41.885376%)" stop-opacity="1"/>
<stop offset="0.652344" stop-color="rgb(75.350952%, 86.030579%, 41.989136%)" stop-opacity="1"/>
<stop offset="0.65625" stop-color="rgb(74.855042%, 85.862732%, 42.092896%)" stop-opacity="1"/>
<stop offset="0.660156" stop-color="rgb(74.359131%, 85.693359%, 42.195129%)" stop-opacity="1"/>
<stop offset="0.664062" stop-color="rgb(73.86322%, 85.525513%, 42.298889%)" stop-opacity="1"/>
<stop offset="0.667969" stop-color="rgb(73.36731%, 85.357666%, 42.402649%)" stop-opacity="1"/>
<stop offset="0.671875" stop-color="rgb(72.871399%, 85.189819%, 42.506409%)" stop-opacity="1"/>
<stop offset="0.675781" stop-color="rgb(72.375488%, 85.020447%, 42.610168%)" stop-opacity="1"/>
<stop offset="0.679688" stop-color="rgb(71.879578%, 84.8526%, 42.713928%)" stop-opacity="1"/>
<stop offset="0.683594" stop-color="rgb(71.383667%, 84.684753%, 42.816162%)" stop-opacity="1"/>
<stop offset="0.6875" stop-color="rgb(70.887756%, 84.516907%, 42.919922%)" stop-opacity="1"/>
<stop offset="0.691406" stop-color="rgb(70.391846%, 84.34906%, 43.023682%)" stop-opacity="1"/>
<stop offset="0.695313" stop-color="rgb(69.895935%, 84.181213%, 43.127441%)" stop-opacity="1"/>
<stop offset="0.699219" stop-color="rgb(69.400024%, 84.011841%, 43.231201%)" stop-opacity="1"/>
<stop offset="0.703125" stop-color="rgb(68.904114%, 83.843994%, 43.334961%)" stop-opacity="1"/>
<stop offset="0.707031" stop-color="rgb(68.408203%, 83.676147%, 43.437195%)" stop-opacity="1"/>
<stop offset="0.710938" stop-color="rgb(67.912292%, 83.508301%, 43.540955%)" stop-opacity="1"/>
<stop offset="0.714844" stop-color="rgb(67.414856%, 83.338928%, 43.644714%)" stop-opacity="1"/>
<stop offset="0.71875" stop-color="rgb(66.918945%, 83.171082%, 43.748474%)" stop-opacity="1"/>
<stop offset="0.722656" stop-color="rgb(66.423035%, 83.003235%, 43.852234%)" stop-opacity="1"/>
<stop offset="0.726562" stop-color="rgb(65.927124%, 82.835388%, 43.955994%)" stop-opacity="1"/>
<stop offset="0.730469" stop-color="rgb(65.431213%, 82.666016%, 44.058228%)" stop-opacity="1"/>
<stop offset="0.734375" stop-color="rgb(64.935303%, 82.498169%, 44.161987%)" stop-opacity="1"/>
<stop offset="0.738281" stop-color="rgb(64.439392%, 82.330322%, 44.265747%)" stop-opacity="1"/>
<stop offset="0.742188" stop-color="rgb(63.943481%, 82.162476%, 44.369507%)" stop-opacity="1"/>
<stop offset="0.746094" stop-color="rgb(63.447571%, 81.993103%, 44.473267%)" stop-opacity="1"/>
<stop offset="0.75" stop-color="rgb(62.95166%, 81.825256%, 44.577026%)" stop-opacity="1"/>
<stop offset="0.753906" stop-color="rgb(62.45575%, 81.65741%, 44.67926%)" stop-opacity="1"/>
<stop offset="0.757813" stop-color="rgb(61.959839%, 81.489563%, 44.78302%)" stop-opacity="1"/>
<stop offset="0.761719" stop-color="rgb(61.463928%, 81.321716%, 44.88678%)" stop-opacity="1"/>
<stop offset="0.765625" stop-color="rgb(60.968018%, 81.15387%, 44.99054%)" stop-opacity="1"/>
<stop offset="0.769531" stop-color="rgb(60.472107%, 80.984497%, 45.094299%)" stop-opacity="1"/>
<stop offset="0.773438" stop-color="rgb(59.976196%, 80.81665%, 45.198059%)" stop-opacity="1"/>
<stop offset="0.777344" stop-color="rgb(59.480286%, 80.648804%, 45.300293%)" stop-opacity="1"/>
<stop offset="0.78125" stop-color="rgb(58.984375%, 80.480957%, 45.404053%)" stop-opacity="1"/>
<stop offset="0.785156" stop-color="rgb(58.488464%, 80.311584%, 45.507812%)" stop-opacity="1"/>
<stop offset="0.789062" stop-color="rgb(57.992554%, 80.143738%, 45.611572%)" stop-opacity="1"/>
<stop offset="0.792969" stop-color="rgb(57.496643%, 79.975891%, 45.715332%)" stop-opacity="1"/>
<stop offset="0.796875" stop-color="rgb(57.000732%, 79.808044%, 45.819092%)" stop-opacity="1"/>
<stop offset="0.800781" stop-color="rgb(56.504822%, 79.638672%, 45.921326%)" stop-opacity="1"/>
<stop offset="0.804688" stop-color="rgb(56.008911%, 79.470825%, 46.025085%)" stop-opacity="1"/>
<stop offset="0.808594" stop-color="rgb(55.513%, 79.302979%, 46.128845%)" stop-opacity="1"/>
<stop offset="0.8125" stop-color="rgb(55.01709%, 79.135132%, 46.232605%)" stop-opacity="1"/>
<stop offset="0.816406" stop-color="rgb(54.521179%, 78.965759%, 46.336365%)" stop-opacity="1"/>
<stop offset="0.820313" stop-color="rgb(54.025269%, 78.797913%, 46.440125%)" stop-opacity="1"/>
<stop offset="0.824219" stop-color="rgb(53.529358%, 78.630066%, 46.542358%)" stop-opacity="1"/>
<stop offset="0.828125" stop-color="rgb(53.033447%, 78.462219%, 46.646118%)" stop-opacity="1"/>
<stop offset="0.84375" stop-color="rgb(52.986145%, 78.445435%, 46.655273%)" stop-opacity="1"/>
<stop offset="0.875" stop-color="rgb(52.940369%, 78.430176%, 46.665955%)" stop-opacity="1"/>
<stop offset="1" stop-color="rgb(52.940369%, 78.430176%, 46.665955%)" stop-opacity="1"/>
</linearGradient>
</defs>
<path fill-rule="evenodd" fill="rgb(89.84375%, 89.84375%, 89.84375%)" fill-opacity="1" d="M 511.644531 258.320312 C 372.316406 258.320312 258.332031 372.308594 258.332031 511.648438 L 258.332031 3361.359375 C 258.332031 3500.691406 372.316406 3614.671875 511.644531 3614.671875 L 3361.359375 3614.671875 C 3500.691406 3614.671875 3614.671875 3500.691406 3614.671875 3361.359375 L 3614.671875 511.648438 C 3614.671875 372.308594 3500.691406 258.320312 3361.359375 258.320312 Z M 511.644531 68.351562 L 3361.359375 68.351562 C 3605.160156 68.351562 3804.628906 267.828125 3804.628906 511.648438 L 3804.628906 3361.359375 C 3804.628906 3605.160156 3605.160156 3804.628906 3361.359375 3804.628906 L 511.644531 3804.628906 C 267.832031 3804.628906 68.347656 3605.160156 68.347656 3361.359375 L 68.347656 511.648438 C 68.347656 267.828125 267.832031 68.351562 511.644531 68.351562 "/>
<g clip-path="url(#clip-0)">
<g clip-path="url(#clip-1)">
<path fill-rule="nonzero" fill="url(#linear-pattern-0)" d="M 1936.496094 -1936.496094 L -1936.496094 1936.496094 L 1936.496094 5809.484375 L 5809.484375 1936.496094 Z M 1936.496094 -1936.496094 "/>
</g>
</g>
<path fill-rule="evenodd" fill="rgb(100%, 77.734375%, 66.601562%)" fill-opacity="1" d="M 2020.121094 2149.488281 L 1852.839844 2149.488281 C 1851.039062 2149.488281 1849.230469 2149.289062 1847.449219 2148.949219 L 1584.289062 2096 C 1577.929688 2094.738281 1572.238281 2091.21875 1568.210938 2086.121094 C 1506.421875 2007.660156 1456.371094 1912.75 1422.96875 1810.808594 C 1336.589844 1784.210938 1275.449219 1702.71875 1275.449219 1611.179688 C 1275.449219 1530.011719 1322.328125 1456.570312 1395.441406 1422.191406 C 1427.738281 1383.070312 1580.429688 1203.980469 1702.039062 1162.558594 C 1700.851562 1160.421875 1699.691406 1158.28125 1698.550781 1156.160156 C 1698.550781 1156.160156 1698.550781 1156.128906 1698.53125 1156.121094 C 1698.410156 1155.890625 1698.28125 1155.660156 1698.171875 1155.441406 C 1675.460938 1112.851562 1659.25 1066.71875 1649.960938 1018.28125 C 1647.140625 1003.449219 1656.839844 989.140625 1671.679688 986.300781 C 1686.46875 983.441406 1700.820312 993.148438 1703.671875 1007.988281 L 1703.671875 1008.011719 L 1703.710938 1008 C 1705.289062 1016.300781 1707.101562 1024.519531 1709.128906 1032.628906 C 1717.421875 1065.558594 1729.351562 1097.078125 1744.769531 1126.601562 C 1746.441406 1128.820312 1747.769531 1131.308594 1748.71875 1133.96875 C 1752.679688 1141.179688 1756.910156 1148.410156 1761.46875 1155.671875 C 1761.558594 1155.820312 1761.660156 1155.96875 1761.761719 1156.121094 C 1761.78125 1156.191406 1761.808594 1156.230469 1761.851562 1156.269531 C 1763.519531 1158.910156 1765.238281 1161.558594 1767 1164.179688 C 1767.070312 1164.320312 1767.171875 1164.449219 1767.238281 1164.578125 C 1767.269531 1164.640625 1767.320312 1164.691406 1767.359375 1164.761719 C 1877.429688 1329.949219 2109.128906 1417.25 2437.378906 1417.25 C 2437.398438 1417.25 2437.421875 1417.25 2437.441406 1417.25 C 2444.949219 1417.25 2452.441406 1417.21875 2460.101562 1417.121094 C 2463.789062 1416.980469 2467.699219 1417.851562 2471.21875 1419.359375 C 2547.921875 1452.410156 2597.480469 1527.710938 2597.480469 1611.179688 C 2597.480469 1702.710938 2536.320312 1784.21875 2449.949219 1810.800781 C 2416.558594 1912.699219 2366.5 2007.621094 2304.710938 2086.078125 C 2300.710938 2091.199219 2295 2094.691406 2288.640625 2095.96875 L 2025.480469 2148.921875 C 2023.730469 2149.320312 2021.929688 2149.488281 2020.121094 2149.488281 "/>
<path fill-rule="evenodd" fill="rgb(100%, 69.726562%, 59.959412%)" fill-opacity="1" d="M 2020.121094 2149.488281 L 1852.839844 2149.488281 C 1851.039062 2149.488281 1849.230469 2149.289062 1847.449219 2148.949219 L 1584.289062 2096 C 1577.929688 2094.738281 1572.238281 2091.21875 1568.210938 2086.121094 C 1543.859375 2055.199219 1521.328125 2021.710938 1500.929688 1986.238281 L 1859.25 2058.351562 L 2013.738281 2058.351562 L 2371.96875 1986.261719 C 2351.578125 2021.710938 2329.050781 2055.179688 2304.710938 2086.078125 C 2300.710938 2091.199219 2295 2094.691406 2288.640625 2095.96875 L 2025.480469 2148.921875 C 2023.730469 2149.320312 2021.929688 2149.488281 2020.121094 2149.488281 "/>
<path fill-rule="evenodd" fill="rgb(15.281677%, 22.75238%, 46.655273%)" fill-opacity="1" d="M 1412.539062 1471.828125 C 1405.160156 1471.828125 1398.070312 1468.839844 1392.929688 1463.53125 C 1303.648438 1371.53125 1281.910156 1220.25 1281.019531 1213.851562 C 1280.839844 1212.621094 1280.75 1211.359375 1280.75 1210.109375 C 1280.75 891.441406 1464.609375 843.871094 1574.210938 843.871094 C 1632.621094 843.871094 1676.941406 857.359375 1678.789062 857.910156 C 1691.71875 861.910156 1699.769531 874.769531 1697.761719 888.140625 C 1697.539062 889.511719 1677.921875 1031.738281 1768.269531 1166.148438 C 1773.808594 1174.390625 1774.441406 1184.988281 1769.921875 1193.828125 C 1765.390625 1202.679688 1756.460938 1208.371094 1746.550781 1208.730469 C 1655.179688 1211.980469 1489.78125 1392.429688 1433.78125 1461.699219 C 1428.871094 1467.789062 1421.578125 1471.46875 1413.761719 1471.820312 C 1413.359375 1471.828125 1412.941406 1471.828125 1412.539062 1471.828125 "/>
<path fill-rule="evenodd" fill="rgb(100%, 66.209412%, 48.242188%)" fill-opacity="1" d="M 1682.339844 1670.511719 C 1667.261719 1670.511719 1655 1658.269531 1655 1643.179688 L 1655 1566.070312 C 1655 1550.980469 1667.261719 1538.730469 1682.339844 1538.730469 C 1697.429688 1538.730469 1709.691406 1550.980469 1709.691406 1566.070312 L 1709.691406 1643.179688 C 1709.691406 1658.269531 1697.460938 1670.511719 1682.339844 1670.511719 "/>
<path fill-rule="evenodd" fill="rgb(100%, 66.209412%, 48.242188%)" fill-opacity="1" d="M 2190.628906 1670.511719 C 2175.539062 1670.511719 2163.289062 1658.269531 2163.289062 1643.179688 L 2163.289062 1566.070312 C 2163.289062 1550.980469 2175.558594 1538.730469 2190.628906 1538.730469 C 2205.710938 1538.730469 2217.980469 1550.980469 2217.980469 1566.070312 L 2217.980469 1643.179688 C 2217.980469 1658.269531 2205.71875 1670.511719 2190.628906 1670.511719 "/>
<path fill-rule="evenodd" fill="rgb(100%, 66.209412%, 48.242188%)" fill-opacity="1" d="M 1936.488281 1973.171875 C 1853.601562 1973.171875 1778.578125 1927.351562 1740.648438 1853.578125 C 1733.761719 1840.148438 1739.039062 1823.679688 1752.46875 1816.769531 C 1765.878906 1809.859375 1782.390625 1815.171875 1789.28125 1828.601562 C 1817.78125 1884.039062 1874.199219 1918.511719 1936.488281 1918.511719 C 1998.78125 1918.511719 2055.179688 1884.050781 2083.710938 1828.578125 C 2090.589844 1815.160156 2107.050781 1809.859375 2120.488281 1816.769531 C 2133.941406 1823.679688 2139.21875 1840.171875 2132.300781 1853.578125 C 2094.390625 1927.371094 2019.359375 1973.171875 1936.488281 1973.171875 "/>
<path fill-rule="evenodd" fill="rgb(100%, 78.125%, 22.363281%)" fill-opacity="1" d="M 1852.871094 3102.890625 C 1851.058594 3102.890625 1849.269531 3102.699219 1847.480469 3102.371094 L 1171.738281 2966.46875 C 1101.5 2952.339844 1056.140625 2905.058594 1056.140625 2845.988281 L 1056.140625 2519.808594 C 1056.140625 2504.71875 1068.378906 2492.46875 1083.46875 2492.46875 L 1132.75 2492.46875 C 1147.789062 2492.46875 1160.039062 2480.25 1160.039062 2465.210938 L 1160.039062 2237.480469 C 1160.039062 2222.429688 1147.78125 2210.230469 1132.75 2210.230469 L 1083.46875 2210.210938 C 1068.378906 2210.210938 1056.140625 2197.960938 1056.140625 2182.878906 L 1056.140625 2080.339844 C 1056.140625 2014.980469 1106.898438 1957.621094 1164.808594 1957.621094 C 1170.828125 1957.621094 1176.949219 1958.25 1182.941406 1959.449219 L 1858.269531 2095.328125 C 1871.039062 2097.910156 1880.21875 2109.148438 1880.21875 2122.140625 L 1880.21875 3075.558594 C 1880.21875 3083.75 1876.550781 3091.519531 1870.199219 3096.691406 C 1865.261719 3100.71875 1859.101562 3102.890625 1852.871094 3102.890625 "/>
<path fill-rule="evenodd" fill="rgb(100%, 70.117188%, 19.993591%)" fill-opacity="1" d="M 1056.140625 2565.390625 L 1056.140625 2519.808594 C 1056.140625 2504.71875 1068.378906 2492.46875 1083.46875 2492.46875 L 1132.75 2492.46875 C 1147.789062 2492.46875 1160.039062 2480.25 1160.039062 2465.210938 L 1160.039062 2237.480469 C 1160.039062 2222.429688 1147.78125 2210.230469 1132.75 2210.230469 L 1083.46875 2210.210938 C 1068.378906 2210.210938 1056.140625 2197.960938 1056.140625 2182.878906 L 1056.140625 2137.328125 L 1132.75 2137.308594 C 1187.980469 2137.308594 1232.898438 2182.230469 1232.898438 2237.460938 L 1232.898438 2465.191406 C 1232.898438 2520.441406 1187.988281 2565.390625 1132.75 2565.390625 L 1056.140625 2565.390625 "/>
<path fill-rule="evenodd" fill="rgb(100%, 78.125%, 22.363281%)" fill-opacity="1" d="M 2020.121094 3102.890625 C 2013.851562 3102.890625 2007.730469 3100.75 2002.800781 3096.691406 C 1996.460938 3091.519531 1992.769531 3083.730469 1992.769531 3075.558594 L 1992.769531 2122.140625 C 1992.769531 2109.128906 2001.96875 2097.910156 2014.71875 2095.328125 L 2690.050781 1959.449219 C 2696.039062 1958.25 2702.160156 1957.621094 2708.199219 1957.621094 C 2766.078125 1957.621094 2816.871094 2014.980469 2816.871094 2080.339844 L 2816.871094 2182.878906 C 2816.871094 2197.960938 2804.589844 2210.210938 2789.519531 2210.210938 L 2740.21875 2210.210938 C 2725.179688 2210.210938 2712.96875 2222.429688 2712.96875 2237.460938 L 2712.96875 2465.191406 C 2712.96875 2480.230469 2725.179688 2492.46875 2740.21875 2492.46875 L 2789.519531 2492.46875 C 2804.609375 2492.46875 2816.871094 2504.738281 2816.871094 2519.808594 L 2816.871094 2845.988281 C 2816.871094 2905.039062 2771.480469 2952.339844 2701.25 2966.46875 L 2025.511719 3102.371094 C 2023.710938 3102.699219 2021.921875 3102.890625 2020.121094 3102.890625 "/>
<path fill-rule="evenodd" fill="rgb(100%, 70.117188%, 19.993591%)" fill-opacity="1" d="M 2816.871094 2137.308594 L 2816.871094 2182.878906 C 2816.871094 2197.960938 2804.589844 2210.210938 2789.519531 2210.210938 L 2740.21875 2210.210938 C 2725.179688 2210.210938 2712.96875 2222.429688 2712.96875 2237.460938 L 2712.96875 2465.191406 C 2712.96875 2480.230469 2725.179688 2492.46875 2740.21875 2492.46875 L 2789.519531 2492.46875 C 2804.609375 2492.46875 2816.871094 2504.738281 2816.871094 2519.808594 L 2816.871094 2565.390625 L 2740.21875 2565.390625 C 2684.988281 2565.390625 2640.070312 2520.460938 2640.070312 2465.230469 L 2640.070312 2237.480469 C 2640.070312 2182.25 2684.988281 2137.328125 2740.21875 2137.328125 L 2816.871094 2137.308594 "/>
<path fill-rule="evenodd" fill="rgb(100%, 82.03125%, 72.851562%)" fill-opacity="1" d="M 1132.75 2547.160156 L 1034.171875 2547.160156 C 988.984375 2547.160156 952.226562 2510.398438 952.226562 2465.230469 L 952.226562 2237.480469 C 952.226562 2192.300781 989.003906 2155.539062 1034.171875 2155.539062 L 1132.75 2155.539062 C 1177.941406 2155.539062 1214.679688 2192.300781 1214.679688 2237.460938 L 1214.679688 2465.191406 C 1214.691406 2510.398438 1177.941406 2547.160156 1132.75 2547.160156 "/>
<path fill-rule="evenodd" fill="rgb(100%, 82.03125%, 72.851562%)" fill-opacity="1" d="M 2838.800781 2547.160156 L 2740.21875 2547.160156 C 2695.039062 2547.160156 2658.289062 2510.398438 2658.289062 2465.230469 L 2658.289062 2237.480469 C 2658.289062 2192.300781 2695.058594 2155.539062 2740.21875 2155.539062 L 2838.800781 2155.539062 C 2884 2155.539062 2920.769531 2192.300781 2920.769531 2237.460938 L 2920.769531 2465.191406 C 2920.78125 2510.398438 2884 2547.160156 2838.800781 2547.160156 "/>
<path fill-rule="evenodd" fill="rgb(100%, 69.726562%, 19.604492%)" fill-opacity="1" d="M 1673.609375 2324.308594 C 1672.460938 2324.308594 1671.320312 2324.230469 1670.140625 2324.078125 L 1360.460938 2284.910156 C 1345.480469 2283.019531 1334.859375 2269.351562 1336.761719 2254.371094 C 1338.660156 2239.390625 1352.328125 2228.75 1367.308594 2230.679688 L 1676.988281 2269.839844 C 1691.96875 2271.75 1702.589844 2285.410156 1700.691406 2300.390625 C 1698.949219 2314.199219 1687.191406 2324.308594 1673.609375 2324.308594 "/>
<path fill-rule="evenodd" fill="rgb(100%, 69.726562%, 19.604492%)" fill-opacity="1" d="M 1673.609375 2461.359375 C 1672.460938 2461.359375 1671.320312 2461.28125 1670.140625 2461.128906 L 1360.460938 2421.980469 C 1345.480469 2420.089844 1334.859375 2406.398438 1336.761719 2391.441406 C 1338.660156 2376.460938 1352.328125 2365.859375 1367.308594 2367.75 L 1676.988281 2406.890625 C 1691.96875 2408.789062 1702.589844 2422.460938 1700.691406 2437.441406 C 1698.949219 2451.25 1687.191406 2461.359375 1673.609375 2461.359375 "/>
<path fill-rule="evenodd" fill="rgb(100%, 69.726562%, 19.604492%)" fill-opacity="1" d="M 1673.609375 2598.421875 C 1672.460938 2598.421875 1671.320312 2598.351562 1670.140625 2598.179688 L 1360.460938 2559.03125 C 1345.480469 2557.140625 1334.859375 2543.449219 1336.761719 2528.488281 C 1338.660156 2513.511719 1352.328125 2502.851562 1367.308594 2504.800781 L 1676.988281 2543.949219 C 1691.96875 2545.859375 1702.589844 2559.53125 1700.691406 2574.488281 C 1698.949219 2588.320312 1687.191406 2598.421875 1673.609375 2598.421875 "/>
<path fill-rule="evenodd" fill="rgb(100%, 69.726562%, 19.604492%)" fill-opacity="1" d="M 2211.640625 2324.308594 C 2198.070312 2324.308594 2186.308594 2314.199219 2184.550781 2300.390625 C 2182.660156 2285.410156 2193.261719 2271.730469 2208.25 2269.839844 L 2517.921875 2230.679688 C 2532.980469 2228.808594 2546.601562 2239.390625 2548.480469 2254.371094 C 2550.351562 2269.351562 2539.761719 2283.039062 2524.78125 2284.910156 L 2215.109375 2324.078125 C 2213.941406 2324.230469 2212.808594 2324.308594 2211.640625 2324.308594 "/>
<path fill-rule="evenodd" fill="rgb(100%, 69.726562%, 19.604492%)" fill-opacity="1" d="M 2211.640625 2461.359375 C 2198.070312 2461.359375 2186.308594 2451.25 2184.550781 2437.441406 C 2182.660156 2422.460938 2193.261719 2408.78125 2208.25 2406.890625 L 2517.921875 2367.75 C 2532.980469 2365.890625 2546.601562 2376.460938 2548.480469 2391.441406 C 2550.351562 2406.421875 2539.761719 2420.101562 2524.78125 2421.980469 L 2215.109375 2461.128906 C 2213.941406 2461.28125 2212.808594 2461.359375 2211.640625 2461.359375 "/>
<path fill-rule="evenodd" fill="rgb(100%, 69.726562%, 19.604492%)" fill-opacity="1" d="M 2211.640625 2598.421875 C 2198.070312 2598.421875 2186.308594 2588.320312 2184.550781 2574.488281 C 2182.660156 2559.53125 2193.261719 2545.828125 2208.25 2543.949219 L 2517.921875 2504.800781 C 2532.980469 2502.910156 2546.601562 2513.511719 2548.480469 2528.488281 C 2550.351562 2543.46875 2539.761719 2557.148438 2524.78125 2559.03125 L 2215.109375 2598.179688 C 2213.941406 2598.351562 2212.808594 2598.421875 2211.640625 2598.421875 "/>
<path fill-rule="evenodd" fill="rgb(100%, 69.726562%, 19.604492%)" fill-opacity="1" d="M 2020.121094 3102.890625 L 1852.839844 3102.890625 C 1837.761719 3102.890625 1825.5 3090.628906 1825.5 3075.558594 L 1825.5 2122.140625 C 1825.5 2107.050781 1837.761719 2094.800781 1852.839844 2094.800781 L 2020.121094 2094.800781 C 2035.210938 2094.800781 2047.449219 2107.070312 2047.449219 2122.140625 L 2047.449219 3075.558594 C 2047.460938 3090.628906 2035.210938 3102.890625 2020.121094 3102.890625 "/>
<path fill-rule="evenodd" fill="rgb(16.479492%, 25.87738%, 54.492188%)" fill-opacity="1" d="M 2437.441406 1471.960938 C 2117.488281 1471.960938 1888.570312 1394.421875 1757.109375 1241.488281 C 1615.71875 1077.050781 1642.519531 887.898438 1643.699219 879.960938 C 1644.328125 875.871094 1645.871094 871.980469 1648.199219 868.558594 C 1693.121094 803.238281 1770.300781 770.109375 1877.601562 770.109375 C 1902.960938 770.109375 1930.101562 772.03125 1958.289062 775.808594 C 2019.28125 783.988281 2073.699219 805.898438 2131.320312 829.101562 C 2201.660156 857.398438 2274.359375 886.679688 2371.769531 897.648438 C 2463.578125 907.988281 2526.769531 945.789062 2559.601562 1009.96875 C 2642.898438 1172.910156 2490.761719 1446.339844 2484.238281 1457.898438 C 2479.449219 1466.398438 2470.5 1471.710938 2460.75 1471.820312 C 2452.898438 1471.921875 2445.148438 1471.960938 2437.441406 1471.960938 "/>
</svg>
